<?xml version="1.0" encoding="UTF-8" standalone="no"?>
<!--Created with ArtCAM (http://www.artcam.com/) -->
<svg height="200.000000mm" width="300.000000mm" viewBox="0 0 300.000000 200.000000">
<path d="M68.278385,41.704011 A19.250222,19.250222 0 0,0 58.653385,58.244168 A3.000000,3.000000 0 0,1 57.730308,60.408976 A10.000000,10.000000 0 0,0 57.730308,74.841024 A3.000000,3.000000 0 0,1 58.653385,77.005832 L58.653385,113.744168 A3.000000,3.000000 0 0,1 57.730308,115.908976 A10.000000,10.000000 0 0,0 57.730308,130.341024 A3.000000,3.000000 0 0,1 58.653385,132.505832 L58.653385,150.875000 A19.250000,19.250000 0 0,0 77.903385,170.125000 L206.075145,170.125000 A19.250000,19.250000 0 0,0 215.700145,167.545989 L231.721615,158.295989 A19.250000,19.250000 0 0,0 241.346170,141.755828 A3.000219,3.000219 0 0,1 242.269692,139.591024 A10.000000,10.000000 0 0,0 242.269692,125.158976 A3.000000,3.000000 0 0,1 241.346615,122.994168 L241.346615,86.255832 A3.000000,3.000000 0 0,1 242.269692,84.091024 A10.000000,10.000000 0 0,0 242.269692,69.658976 A3.000000,3.000000 0 0,1 241.346615,67.494168 L241.346615,49.125000 A19.250000,19.250000 0 0,0 222.096615,29.875000 L93.924855,29.875000 A19.250000,19.250000 0 0,0 84.299855,32.454011 L68.278385,41.704011 
" style="fill:none;stroke:#000000;stroke-width:0.25"/>
<path d="M235.346615,72.375000 A4.500000,4.500000 0 0,1 239.846615,76.875000 A4.500000,4.500000 0 0,1 235.346615,81.375000 A4.500000,4.500000 0 0,1 230.846615,76.875000 A4.500000,4.500000 0 0,1 235.346615,72.375000 
" style="fill:none;stroke:#000000;stroke-width:0.25"/>
<path d="M235.346615,127.875000 A4.500000,4.500000 0 0,1 239.846615,132.375000 A4.500000,4.500000 0 0,1 235.346615,136.875000 A4.500000,4.500000 0 0,1 230.846615,132.375000 A4.500000,4.500000 0 0,1 235.346615,127.875000 
" style="fill:none;stroke:#000000;stroke-width:0.25"/>
<path d="M190.053675,155.625000 A4.500000,4.500000 0 0,1 194.553675,160.125000 A4.500000,4.500000 0 0,1 190.053675,164.625000 A4.500000,4.500000 0 0,1 185.553675,160.125000 A4.500000,4.500000 0 0,1 190.053675,155.625000 
" style="fill:none;stroke:#000000;stroke-width:0.25"/>
<path d="M158.010735,155.625000 A4.500000,4.500000 0 0,1 162.510735,160.125000 A4.500000,4.500000 0 0,1 158.010735,164.625000 A4.500000,4.500000 0 0,1 153.510735,160.125000 A4.500000,4.500000 0 0,1 158.010735,155.625000 
" style="fill:none;stroke:#000000;stroke-width:0.25"/>
<path d="M93.924855,155.625000 A4.500000,4.500000 0 0,1 98.424855,160.125000 A4.500000,4.500000 0 0,1 93.924855,164.625000 A4.500000,4.500000 0 0,1 89.424855,160.125000 A4.500000,4.500000 0 0,1 93.924855,155.625000 
" style="fill:none;stroke:#000000;stroke-width:0.25"/>
<path d="M64.653385,118.625000 A4.500000,4.500000 0 0,1 69.153385,123.125000 A4.500000,4.500000 0 0,1 64.653385,127.625000 A4.500000,4.500000 0 0,1 60.153385,123.125000 A4.500000,4.500000 0 0,1 64.653385,118.625000 
" style="fill:none;stroke:#000000;stroke-width:0.25"/>
<path d="M64.653385,63.125000 A4.500000,4.500000 0 0,1 69.153385,67.625000 A4.500000,4.500000 0 0,1 64.653385,72.125000 A4.500000,4.500000 0 0,1 60.153385,67.625000 A4.500000,4.500000 0 0,1 64.653385,63.125000 
" style="fill:none;stroke:#000000;stroke-width:0.25"/>
<path d="M109.946325,35.375000 A4.500000,4.500000 0 0,1 114.446325,39.875000 A4.500000,4.500000 0 0,1 109.946325,44.375000 A4.500000,4.500000 0 0,1 105.446325,39.875000 A4.500000,4.500000 0 0,1 109.946325,35.375000 
" style="fill:none;stroke:#000000;stroke-width:0.25"/>
<path d="M141.989265,35.375000 A4.500000,4.500000 0 0,1 146.489265,39.875000 A4.500000,4.500000 0 0,1 141.989265,44.375000 A4.500000,4.500000 0 0,1 137.489265,39.875000 A4.500000,4.500000 0 0,1 141.989265,35.375000 
" style="fill:none;stroke:#000000;stroke-width:0.25"/>
<path d="M206.075145,35.375000 A4.500000,4.500000 0 0,1 210.575145,39.875000 A4.500000,4.500000 0 0,1 206.075145,44.375000 A4.500000,4.500000 0 0,1 201.575145,39.875000 A4.500000,4.500000 0 0,1 206.075145,35.375000 
" style="fill:none;stroke:#000000;stroke-width:0.25"/>
</svg>
