%FSLAX34Y34*%
%MOMM*%
%LNCOPPER_TOP*%
G71*
G01*
%ADD10C, 1.500*%
%ADD11R, 2.400X1.500*%
%ADD12C, 0.700*%
%ADD13R, 1.200X1.600*%
%ADD14R, 5.600X5.800*%
%ADD15C, 1.100*%
%ADD16R, 1.300X1.400*%
%ADD17C, 2.000*%
%ADD18C, 3.000*%
%ADD19R, 2.000X2.000*%
%LPD*%
X241300Y222250D02*
G54D10*
D03*
X241300Y196850D02*
G54D10*
D03*
X241300Y171450D02*
G54D10*
D03*
X241300Y146050D02*
G54D10*
D03*
X241300Y120650D02*
G54D10*
D03*
X241300Y95250D02*
G54D10*
D03*
X241300Y69850D02*
G54D10*
D03*
X241300Y44450D02*
G54D10*
D03*
X393700Y222250D02*
G54D10*
D03*
X393700Y196850D02*
G54D10*
D03*
X393700Y171450D02*
G54D10*
D03*
X393700Y146050D02*
G54D10*
D03*
X393700Y120650D02*
G54D10*
D03*
X393700Y95250D02*
G54D10*
D03*
X393700Y69850D02*
G54D10*
D03*
X393700Y44450D02*
G54D10*
D03*
X228600Y222250D02*
G54D11*
D03*
X228600Y196850D02*
G54D11*
D03*
X228600Y171450D02*
G54D11*
D03*
X228600Y146050D02*
G54D11*
D03*
X228600Y120650D02*
G54D11*
D03*
X228600Y95250D02*
G54D11*
D03*
X228600Y69850D02*
G54D11*
D03*
X228600Y44450D02*
G54D11*
D03*
X406400Y44450D02*
G54D11*
D03*
X406400Y69850D02*
G54D11*
D03*
X406400Y95250D02*
G54D11*
D03*
X406400Y120650D02*
G54D11*
D03*
X406400Y146050D02*
G54D11*
D03*
X406400Y171450D02*
G54D11*
D03*
X406400Y196850D02*
G54D11*
D03*
X406400Y222250D02*
G54D11*
D03*
X50800Y298450D02*
G54D11*
D03*
X50800Y273050D02*
G54D11*
D03*
X63500Y298450D02*
G54D10*
D03*
X63500Y273050D02*
G54D10*
D03*
X139700Y298450D02*
G54D10*
D03*
X139700Y273050D02*
G54D10*
D03*
X152400Y298450D02*
G54D11*
D03*
X152400Y273050D02*
G54D11*
D03*
X50800Y222250D02*
G54D11*
D03*
X50800Y196850D02*
G54D11*
D03*
X63500Y222250D02*
G54D10*
D03*
X63500Y196850D02*
G54D10*
D03*
X139700Y222250D02*
G54D10*
D03*
X139700Y196850D02*
G54D10*
D03*
X152400Y222250D02*
G54D11*
D03*
X152400Y196850D02*
G54D11*
D03*
X50800Y146050D02*
G54D11*
D03*
X50800Y120650D02*
G54D11*
D03*
X63500Y146050D02*
G54D10*
D03*
X63500Y120650D02*
G54D10*
D03*
X139700Y146050D02*
G54D10*
D03*
X139700Y120650D02*
G54D10*
D03*
X152400Y146050D02*
G54D11*
D03*
X152400Y120650D02*
G54D11*
D03*
X50800Y69850D02*
G54D11*
D03*
X50800Y44450D02*
G54D11*
D03*
X63500Y69850D02*
G54D10*
D03*
X63500Y44450D02*
G54D10*
D03*
X139700Y69850D02*
G54D10*
D03*
X139700Y44450D02*
G54D10*
D03*
X152400Y69850D02*
G54D11*
D03*
X152400Y44450D02*
G54D11*
D03*
G54D12*
X139700Y298450D02*
X165100Y298450D01*
X177800Y285750D01*
X177800Y234950D01*
X215900Y196850D01*
X241300Y196850D01*
G54D12*
X139700Y222250D02*
X165100Y222250D01*
X215900Y171450D01*
X241300Y171450D01*
G54D12*
X139700Y146050D02*
X241300Y146050D01*
G54D12*
X139700Y69850D02*
X165100Y69850D01*
X215900Y120650D01*
X241300Y120650D01*
G54D12*
X139700Y196850D02*
X114300Y196850D01*
G54D12*
X139700Y120650D02*
X114300Y120650D01*
X584200Y44450D02*
G54D11*
D03*
X584200Y69850D02*
G54D11*
D03*
X571500Y44450D02*
G54D10*
D03*
X571500Y69850D02*
G54D10*
D03*
X495300Y44450D02*
G54D10*
D03*
X495300Y69850D02*
G54D10*
D03*
X482600Y44450D02*
G54D11*
D03*
X482600Y69850D02*
G54D11*
D03*
X584200Y120650D02*
G54D11*
D03*
X584200Y146050D02*
G54D11*
D03*
X571500Y120650D02*
G54D10*
D03*
X571500Y146050D02*
G54D10*
D03*
X495300Y120650D02*
G54D10*
D03*
X495300Y146050D02*
G54D10*
D03*
X482600Y120650D02*
G54D11*
D03*
X482600Y146050D02*
G54D11*
D03*
G54D12*
X495300Y44450D02*
X393700Y44450D01*
G54D12*
X495300Y120650D02*
X469900Y120650D01*
X419100Y69850D01*
X393700Y69850D01*
X393700Y317500D02*
G54D13*
D03*
X437700Y317500D02*
G54D13*
D03*
X415700Y391500D02*
G54D14*
D03*
X476250Y317500D02*
G54D13*
D03*
X520250Y317500D02*
G54D13*
D03*
X498250Y391500D02*
G54D14*
D03*
G54D15*
X241300Y44449D02*
X190500Y44449D01*
X165100Y19049D01*
X88900Y19049D01*
X88900Y285749D01*
G54D15*
X520700Y260350D02*
X520700Y69850D01*
X495300Y69850D01*
G54D12*
X520700Y146050D02*
X495300Y146050D01*
G54D12*
X476250Y317500D02*
X476250Y292100D01*
X450850Y266700D01*
X406400Y266700D01*
X374650Y234950D01*
X374650Y165100D01*
X393700Y146050D01*
G54D12*
X393700Y317500D02*
X393700Y279400D01*
X361950Y247650D01*
X361950Y107950D01*
X374650Y95250D01*
X393700Y95250D01*
G36*
X205500Y321549D02*
X175500Y321549D01*
X175500Y351549D01*
X205500Y351549D01*
X205500Y321549D01*
G37*
G36*
X205500Y410449D02*
X175500Y410449D01*
X175500Y440449D01*
X205500Y440449D01*
X205500Y410449D01*
G37*
G36*
X40400Y410449D02*
X10400Y410449D01*
X10400Y440449D01*
X40400Y440449D01*
X40400Y410449D01*
G37*
G36*
X40400Y321549D02*
X10400Y321549D01*
X10400Y351549D01*
X40400Y351549D01*
X40400Y321549D01*
G37*
X222200Y304800D02*
G54D16*
D03*
X203200Y304800D02*
G54D16*
D03*
X203200Y279400D02*
G54D16*
D03*
X222200Y279400D02*
G54D16*
D03*
X12700Y298450D02*
G54D17*
D03*
X12700Y273050D02*
G54D17*
D03*
X12700Y222250D02*
G54D17*
D03*
X12700Y196850D02*
G54D17*
D03*
X12700Y146050D02*
G54D17*
D03*
X12700Y120650D02*
G54D17*
D03*
X12700Y69850D02*
G54D17*
D03*
X12700Y44450D02*
G54D17*
D03*
X622300Y146050D02*
G54D17*
D03*
X622300Y120650D02*
G54D17*
D03*
X622300Y69850D02*
G54D17*
D03*
X622300Y44450D02*
G54D17*
D03*
X25400Y488950D02*
G54D18*
D03*
X63500Y488950D02*
G54D18*
D03*
X114300Y488950D02*
G54D18*
D03*
X406400Y488950D02*
G54D18*
D03*
X533400Y488950D02*
G54D18*
D03*
X584200Y196850D02*
G54D11*
D03*
X584200Y222250D02*
G54D11*
D03*
X571500Y196850D02*
G54D10*
D03*
X571500Y222250D02*
G54D10*
D03*
X495300Y196850D02*
G54D10*
D03*
X495300Y222250D02*
G54D10*
D03*
X482600Y196850D02*
G54D11*
D03*
X482600Y222250D02*
G54D11*
D03*
G54D12*
X495300Y222250D02*
X520700Y222250D01*
G54D12*
X495300Y196850D02*
X469900Y196850D01*
X444500Y171450D01*
X393700Y171450D01*
X622300Y222250D02*
G54D17*
D03*
X622300Y196850D02*
G54D17*
D03*
G54D12*
X63500Y298450D02*
X12700Y298450D01*
G54D12*
X63500Y273050D02*
X12700Y273050D01*
G54D12*
X63500Y222250D02*
X12700Y222250D01*
G54D12*
X63500Y196850D02*
X12700Y196850D01*
G54D12*
X63500Y146050D02*
X12700Y146050D01*
G54D12*
X63500Y120650D02*
X12700Y120650D01*
G54D12*
X63500Y69850D02*
X12700Y69850D01*
G54D12*
X63500Y44450D02*
X12700Y44450D01*
G54D12*
X571500Y222250D02*
X622300Y222250D01*
G54D12*
X571500Y196850D02*
X622300Y196850D01*
G54D12*
X571500Y146050D02*
X622300Y146050D01*
G54D12*
X571500Y120650D02*
X622300Y120650D01*
G54D12*
X571500Y69850D02*
X622300Y69850D01*
G54D12*
X571500Y44450D02*
X622300Y44450D01*
G54D15*
X241300Y69850D02*
X190500Y69850D01*
X165100Y44450D01*
X139700Y44450D01*
X114300Y44450D01*
X114300Y273050D01*
X139700Y273050D01*
X311150Y406400D02*
G54D19*
D03*
X311150Y355600D02*
G54D19*
D03*
X222250Y355600D02*
G54D19*
D03*
X222250Y406400D02*
G54D19*
D03*
G54D15*
X88900Y285749D02*
X88900Y400050D01*
X63500Y425450D01*
X25400Y425449D01*
G54D15*
X114300Y273050D02*
X114300Y317500D01*
X133350Y336550D01*
X190500Y336549D01*
G54D15*
X222250Y406400D02*
X209549Y406400D01*
X190500Y425449D01*
X152400Y488950D02*
G54D18*
D03*
X203200Y488950D02*
G54D18*
D03*
X241300Y488950D02*
G54D18*
D03*
G36*
X25400Y488950D02*
X63500Y488950D01*
X63500Y425450D01*
X25400Y425450D01*
X25400Y488950D01*
G37*
G54D15*
X25400Y488950D02*
X63500Y488950D01*
X63500Y425450D01*
X25400Y425450D01*
X25400Y488950D01*
G36*
X114300Y488950D02*
X114300Y317500D01*
X133350Y336550D01*
X190500Y336549D01*
X152400Y374650D01*
X152400Y488950D01*
X114300Y488950D01*
G37*
G54D15*
X114300Y488950D02*
X114300Y317500D01*
X133350Y336550D01*
X190500Y336549D01*
X152400Y374650D01*
X152400Y488950D01*
X114300Y488950D01*
G36*
X203200Y488950D02*
X177800Y463550D01*
X177800Y412750D01*
X215900Y412750D01*
X222250Y406400D01*
X228600Y406400D01*
X241300Y419100D01*
X241300Y488950D01*
X203200Y488950D01*
G37*
G54D15*
X203200Y488950D02*
X177800Y463550D01*
X177800Y412750D01*
X215900Y412750D01*
X222250Y406400D01*
X228600Y406400D01*
X241300Y419100D01*
X241300Y488950D01*
X203200Y488950D01*
X304800Y488950D02*
G54D18*
D03*
X355600Y488950D02*
G54D18*
D03*
G54D15*
X304800Y488950D02*
X304800Y412750D01*
X311150Y406400D01*
G54D15*
X311150Y355600D02*
X323850Y355600D01*
X355600Y387350D01*
X355600Y488950D01*
G54D15*
X520700Y260350D02*
X520700Y317050D01*
X520250Y317500D01*
X520250Y337000D01*
X514350Y342900D01*
X368300Y342900D01*
X349250Y323850D01*
X247650Y323850D01*
X228600Y336550D01*
X190500Y336549D01*
G54D15*
X222250Y355600D02*
X196850Y355600D01*
X196850Y342899D01*
X190500Y336549D01*
G54D15*
X438150Y342900D02*
X438150Y317950D01*
X437700Y317500D01*
X444500Y488950D02*
G54D18*
D03*
X495300Y488950D02*
G54D18*
D03*
G36*
X393700Y412750D02*
X393700Y476250D01*
X406400Y488950D01*
X444500Y488950D01*
X444500Y412750D01*
X393700Y412750D01*
G37*
G54D15*
X393700Y412750D02*
X393700Y476250D01*
X406400Y488950D01*
X444500Y488950D01*
X444500Y412750D01*
X393700Y412750D01*
G36*
X495300Y488950D02*
X495300Y438150D01*
X482600Y425450D01*
X482600Y407150D01*
X498250Y391500D01*
X499450Y391500D01*
X520700Y412750D01*
X520700Y425450D01*
X533400Y438150D01*
X533400Y488950D01*
X495300Y488950D01*
G37*
G54D15*
X495300Y488950D02*
X495300Y438150D01*
X482600Y425450D01*
X482600Y407150D01*
X498250Y391500D01*
X499450Y391500D01*
X520700Y412750D01*
X520700Y425450D01*
X533400Y438150D01*
X533400Y488950D01*
X495300Y488950D01*
G36*
X565150Y495300D02*
X565150Y438150D01*
X539750Y412750D01*
X539750Y349250D01*
X533400Y342900D01*
X526150Y342900D01*
X520250Y337000D01*
X520250Y248100D01*
X527050Y241300D01*
X596900Y241300D01*
X622300Y273050D01*
X622300Y495300D01*
X565150Y495300D01*
G37*
G54D12*
X565150Y495300D02*
X565150Y438150D01*
X539750Y412750D01*
X539750Y349250D01*
X533400Y342900D01*
X526150Y342900D01*
X520250Y337000D01*
X520250Y248100D01*
X527050Y241300D01*
X596900Y241300D01*
X622300Y273050D01*
X622300Y495300D01*
X565150Y495300D01*
X222250Y425450D02*
G54D17*
D03*
X254000Y298450D02*
G54D17*
D03*
G54D12*
X203200Y304800D02*
X203200Y247650D01*
X228600Y222250D01*
X241300Y222250D01*
G54D12*
X222200Y304800D02*
X222200Y311100D01*
X234950Y323850D01*
X266700Y323850D01*
G54D12*
X254000Y298450D02*
X234950Y279400D01*
X222200Y279400D01*
M02*
