; Drill file
; Format: 3.3 (000.000)
M48
METRIC
T01C0.6
%
G05
G90
T01
X001.270Y004.440
X001.270Y006.980
X006.350Y006.980
X006.350Y004.440
X006.350Y012.060
X006.350Y014.600
X006.350Y019.680
X006.350Y022.220
X006.350Y027.300
X006.350Y029.840
X001.270Y029.840
X001.270Y027.300
X001.270Y022.220
X001.270Y019.680
X001.270Y014.600
X001.270Y012.060
X013.970Y012.060
X013.970Y014.600
X013.970Y019.680
X013.970Y022.220
X013.970Y027.300
X013.970Y029.840
X019.050Y033.650
X025.400Y029.840
X024.130Y022.220
X024.130Y019.680
X024.130Y017.140
X024.130Y014.600
X024.130Y012.060
X024.130Y009.520
X024.130Y006.980
X024.130Y004.440
X013.970Y004.440
X013.970Y006.980
X039.370Y006.980
X039.370Y009.520
X039.370Y012.060
X039.370Y014.600
X039.370Y017.140
X039.370Y019.680
X039.370Y022.220
X049.530Y022.220
X049.530Y019.680
X049.530Y014.600
X049.530Y012.060
X049.530Y006.980
X049.530Y004.440
X057.150Y004.440
X057.150Y006.980
X057.150Y012.060
X057.150Y014.600
X062.230Y014.600
X062.230Y012.060
X062.230Y006.980
X062.230Y004.440
X062.230Y019.680
X062.230Y022.220
X057.150Y022.220
X057.150Y019.680
X039.370Y004.440
X022.220Y042.540
X019.050Y042.540
X020.320Y048.900
X024.130Y048.900
X030.480Y048.900
X035.560Y048.900
X040.640Y048.900
X044.450Y048.900
X049.530Y048.900
X053.340Y048.900
X015.240Y048.900
X011.430Y048.900
X006.350Y048.900
X002.540Y048.900
X002.540Y042.540
X002.540Y033.650
M30
