; Drill file
; Format: 3.3 (000.000)
M48
METRIC
T01C0.6
%
G05
G90
T01
X001.270Y003.810
X001.270Y006.350
X006.350Y006.350
X006.350Y003.810
X006.350Y011.430
X006.350Y013.970
X006.350Y019.050
X006.350Y021.590
X006.350Y026.670
X006.350Y029.210
X001.270Y029.210
X001.270Y026.670
X001.270Y021.590
X001.270Y019.050
X001.270Y013.970
X001.270Y011.430
X013.970Y011.430
X013.970Y013.970
X013.970Y019.050
X013.970Y021.590
X013.970Y026.670
X013.970Y029.210
X013.970Y034.290
X008.890Y034.290
X008.890Y039.370
X008.890Y044.450
X008.890Y049.530
X013.970Y049.530
X021.590Y049.530
X026.670Y049.530
X026.670Y044.450
X026.670Y039.370
X021.590Y034.290
X024.130Y021.590
X024.130Y019.050
X024.130Y016.510
X024.130Y013.970
X024.130Y011.430
X024.130Y008.890
X024.130Y006.350
X024.130Y003.810
X013.970Y003.810
X013.970Y006.350
X039.370Y006.350
X039.370Y008.890
X039.370Y011.430
X039.370Y013.970
X039.370Y016.510
X039.370Y019.050
X039.370Y021.590
X049.530Y021.590
X049.530Y019.050
X049.530Y013.970
X049.530Y011.430
X049.530Y006.350
X049.530Y003.810
X057.150Y003.810
X057.150Y006.350
X057.150Y011.430
X057.150Y013.970
X062.230Y013.970
X062.230Y011.430
X062.230Y006.350
X062.230Y003.810
X062.230Y019.050
X062.230Y021.590
X057.150Y021.590
X057.150Y019.050
X039.370Y003.810
X034.290Y044.450
X044.450Y044.450
M30
