<?xml version="1.0" encoding="UTF-8" standalone="no"?>
<!--Created with ArtCAM (http://www.artcam.com/) -->
<svg height="200.000000mm" width="230.000000mm" viewBox="0 0 230.000000 200.000000">
<path d="M33.000000,89.500000 L90.000000,89.500000 L90.000000,60.500000 L96.000000,60.500000 A4.000000,4.000000 0 0,0 100.000000,56.500000 A4.000000,4.000000 0 0,0 96.000000,52.500000 L90.000000,52.500000 L90.000000,49.500000 L33.000000,49.500000 L33.000000,89.500000 
" style="fill:none;stroke:#000000;stroke-width:0.215"/>
<path d="M10.000000,190.500000 L10.000000,9.500000 L220.000000,9.500000 L220.000000,190.500000 L10.000000,190.500000 
" style="fill:none;stroke:#000000;stroke-width:0.215"/>
<path d="M131.000000,175.500000 L141.000000,175.500000 L141.000000,166.000000 L191.000000,166.000000 L191.000000,122.000000 L141.000000,122.000000 L141.000000,112.500000 L131.000000,112.500000 L131.000000,79.000000 L144.500000,79.000000 L159.000000,80.000000 L182.000000,80.000000 L182.000000,87.000000 L210.000000,87.000000 L210.000000,47.000000 L182.000000,47.000000 L182.000000,54.000000 L159.000000,54.000000 L144.500000,55.000000 L131.000000,55.000000 L131.000000,54.000000 L110.000000,54.000000 L110.000000,156.000000 L131.000000,156.000000 L131.000000,175.500000 
" style="fill:none;stroke:#000000;stroke-width:0.215"/>
<path d="M15.500000,17.000000 A2.000000,2.000000 0 0,1 17.500000,15.000000 A2.000000,2.000000 0 0,1 19.500000,17.000000 A2.000000,2.000000 0 0,1 17.500000,19.000000 A2.000000,2.000000 0 0,1 15.500000,17.000000 
" style="fill:none;stroke:#000000;stroke-width:0.215"/>
<path d="M210.500000,183.000000 A2.000000,2.000000 0 0,1 212.500000,181.000000 A2.000000,2.000000 0 0,1 214.500000,183.000000 A2.000000,2.000000 0 0,1 212.500000,185.000000 A2.000000,2.000000 0 0,1 210.500000,183.000000 
" style="fill:none;stroke:#000000;stroke-width:0.215"/>
<path d="M192.500000,102.500000 A1.500000,1.500000 0 0,1 194.000000,101.000000 A1.500000,1.500000 0 0,1 195.500000,102.500000 A1.500000,1.500000 0 0,1 194.000000,104.000000 A1.500000,1.500000 0 0,1 192.500000,102.500000 
" style="fill:none;stroke:#000000;stroke-width:0.215"/>
<path d="M28.000000,82.500000 A2.000000,2.000000 0 0,1 30.000000,80.500000 A2.000000,2.000000 0 0,1 32.000000,82.500000 A2.000000,2.000000 0 0,1 30.000000,84.500000 A2.000000,2.000000 0 0,1 28.000000,82.500000 
" style="fill:none;stroke:#000000;stroke-width:0.215"/>
<path d="M26.500000,27.000000 A1.500000,1.500000 0 0,1 28.000000,25.500000 A1.500000,1.500000 0 0,1 29.500000,27.000000 A1.500000,1.500000 0 0,1 28.000000,28.500000 A1.500000,1.500000 0 0,1 26.500000,27.000000 
" style="fill:none;stroke:#000000;stroke-width:0.215"/>
<path d="M134.500000,180.500000 A1.500000,1.500000 0 0,1 136.000000,179.000000 A1.500000,1.500000 0 0,1 137.500000,180.500000 A1.500000,1.500000 0 0,1 136.000000,182.000000 A1.500000,1.500000 0 0,1 134.500000,180.500000 
" style="fill:none;stroke:#000000;stroke-width:0.215"/>
<path d="M165.500000,82.500000 A1.500000,1.500000 0 0,1 167.000000,81.000000 A1.500000,1.500000 0 0,1 168.500000,82.500000 A1.500000,1.500000 0 0,1 167.000000,84.000000 A1.500000,1.500000 0 0,1 165.500000,82.500000 
" style="fill:none;stroke:#000000;stroke-width:0.215"/>
<path d="M165.500000,51.500000 A1.500000,1.500000 0 0,1 167.000000,50.000000 A1.500000,1.500000 0 0,1 168.500000,51.500000 A1.500000,1.500000 0 0,1 167.000000,53.000000 A1.500000,1.500000 0 0,1 165.500000,51.500000 
" style="fill:none;stroke:#000000;stroke-width:0.215"/>
<path d="M176.500000,51.500000 A1.500000,1.500000 0 0,1 178.000000,50.000000 A1.500000,1.500000 0 0,1 179.500000,51.500000 A1.500000,1.500000 0 0,1 178.000000,53.000000 A1.500000,1.500000 0 0,1 176.500000,51.500000 
" style="fill:none;stroke:#000000;stroke-width:0.215"/>
<path d="M176.500000,82.500000 A1.500000,1.500000 0 0,1 178.000000,81.000000 A1.500000,1.500000 0 0,1 179.500000,82.500000 A1.500000,1.500000 0 0,1 178.000000,84.000000 A1.500000,1.500000 0 0,1 176.500000,82.500000 
" style="fill:none;stroke:#000000;stroke-width:0.215"/>
<path d="M134.500000,107.500000 A1.500000,1.500000 0 0,1 136.000000,106.000000 A1.500000,1.500000 0 0,1 137.500000,107.500000 A1.500000,1.500000 0 0,1 136.000000,109.000000 A1.500000,1.500000 0 0,1 134.500000,107.500000 
" style="fill:none;stroke:#000000;stroke-width:0.215"/>
<path d="M91.000000,64.500000 A2.000000,2.000000 0 0,1 93.000000,62.500000 A2.000000,2.000000 0 0,1 95.000000,64.500000 A2.000000,2.000000 0 0,1 93.000000,66.500000 A2.000000,2.000000 0 0,1 91.000000,64.500000 
" style="fill:none;stroke:#000000;stroke-width:0.215"/>
<path d="M152.500000,102.500000 A1.500000,1.500000 0 0,1 154.000000,101.000000 A1.500000,1.500000 0 0,1 155.500000,102.500000 A1.500000,1.500000 0 0,1 154.000000,104.000000 A1.500000,1.500000 0 0,1 152.500000,102.500000 
" style="fill:none;stroke:#000000;stroke-width:0.215"/>
<path d="M210.500000,17.000000 A2.000000,2.000000 0 0,1 212.500000,15.000000 A2.000000,2.000000 0 0,1 214.500000,17.000000 A2.000000,2.000000 0 0,1 212.500000,19.000000 A2.000000,2.000000 0 0,1 210.500000,17.000000 
" style="fill:none;stroke:#000000;stroke-width:0.215"/>
<path d="M15.500000,183.000000 A2.000000,2.000000 0 0,1 17.500000,181.000000 A2.000000,2.000000 0 0,1 19.500000,183.000000 A2.000000,2.000000 0 0,1 17.500000,185.000000 A2.000000,2.000000 0 0,1 15.500000,183.000000 
" style="fill:none;stroke:#000000;stroke-width:0.215"/>
</svg>
