; Drill file
; Format: 3.3 (000.000)
M48
METRIC
T01C0.6
%
G05
G90
T01
X001.900Y002.540
X001.900Y005.080
X001.900Y007.620
X005.300Y008.620
X006.350Y005.720
X011.430Y005.720
X011.800Y008.620
X011.800Y013.120
X015.240Y013.340
X015.240Y015.880
X015.240Y018.420
X005.080Y018.730
X005.080Y016.190
X005.300Y013.120
X001.900Y015.240
X015.240Y005.080
X015.240Y002.540
X034.290Y002.540
X034.290Y005.080
X037.740Y008.150
X037.740Y010.650
X037.740Y013.150
X037.460Y015.870
X037.460Y018.410
X034.290Y017.780
X034.290Y015.240
X043.820Y015.880
X043.820Y018.420
X043.740Y013.150
X043.740Y010.650
X043.740Y008.150
M30
