%FSLAX34Y34*%
%MOMM*%
%LNCOPPER_BOTTOM*%
G71*
G01*
%ADD10C, 2.000*%
%ADD11C, 0.800*%
%LPD*%
X437450Y81500D02*
G54D10*
D03*
X437450Y106500D02*
G54D10*
D03*
X437450Y131500D02*
G54D10*
D03*
X377450Y131500D02*
G54D10*
D03*
X377450Y106500D02*
G54D10*
D03*
X377450Y81500D02*
G54D10*
D03*
X342900Y177800D02*
G54D10*
D03*
X342900Y152400D02*
G54D10*
D03*
X342900Y152400D02*
G54D10*
D03*
X342900Y50800D02*
G54D10*
D03*
X342900Y25400D02*
G54D10*
D03*
X152400Y158750D02*
G54D10*
D03*
X152400Y133350D02*
G54D10*
D03*
X152400Y50800D02*
G54D10*
D03*
X152400Y25400D02*
G54D10*
D03*
X152400Y184150D02*
G54D10*
D03*
X374650Y184149D02*
G54D10*
D03*
X374650Y158749D02*
G54D10*
D03*
X438150Y184150D02*
G54D10*
D03*
X438150Y158750D02*
G54D10*
D03*
X19050Y50800D02*
G54D10*
D03*
X19050Y25400D02*
G54D10*
D03*
X50801Y187325D02*
G54D10*
D03*
X50801Y161925D02*
G54D10*
D03*
X19050Y152400D02*
G54D10*
D03*
X19050Y76200D02*
G54D10*
D03*
X53000Y86150D02*
G54D10*
D03*
X118000Y86150D02*
G54D10*
D03*
X118000Y131150D02*
G54D10*
D03*
X53000Y131150D02*
G54D10*
D03*
X63500Y57150D02*
G54D10*
D03*
X114300Y57150D02*
G54D10*
D03*
G54D11*
X342900Y50800D02*
X342900Y71950D01*
X377450Y106500D01*
G54D11*
X437450Y131500D02*
X437450Y158050D01*
X438150Y158750D01*
G54D11*
X437450Y106500D02*
X430350Y106500D01*
X419100Y95250D01*
G54D11*
X419100Y95250D02*
X419100Y76200D01*
X412750Y69850D01*
X393700Y69850D01*
X387350Y63500D01*
X368300Y63500D01*
X361950Y57150D01*
X361950Y38100D01*
X355600Y25400D01*
X342900Y25400D01*
G54D11*
X342900Y152400D02*
X349250Y152400D01*
X355600Y158750D01*
X374650Y158749D01*
G54D11*
X342900Y177800D02*
X349250Y177800D01*
X355600Y184150D01*
G54D11*
X355600Y184150D02*
X374650Y184149D01*
G54D11*
X438150Y184150D02*
X431800Y184150D01*
X419100Y171450D01*
X419100Y127000D01*
X406400Y114300D01*
X406400Y110450D01*
X377450Y81500D01*
G54D11*
X19050Y50800D02*
X19050Y76200D01*
G54D11*
X50801Y187325D02*
X41275Y187325D01*
X31750Y177800D01*
X25400Y177800D01*
X19050Y171450D01*
X19050Y152400D01*
G54D11*
X50801Y161925D02*
X149225Y161925D01*
X152400Y158750D01*
G54D11*
X152400Y133350D02*
X120200Y133350D01*
X118000Y131150D01*
G54D11*
X19050Y152400D02*
X19050Y120650D01*
X31750Y107950D01*
X88900Y107950D01*
X95250Y114300D01*
X101150Y114300D01*
X118000Y131150D01*
G54D11*
X53000Y86150D02*
X53000Y74000D01*
X63500Y63500D01*
X63500Y57150D01*
G54D11*
X114300Y57150D02*
X139700Y76200D01*
X317500Y76200D01*
X342900Y50800D01*
G54D11*
X19050Y50800D02*
X38100Y50800D01*
X50800Y38100D01*
X139700Y38100D01*
X152400Y50800D01*
G54D11*
X19050Y25400D02*
X31750Y25400D01*
X38100Y19050D01*
X146050Y19050D01*
X152400Y25400D01*
G54D11*
X152400Y184150D02*
X241300Y184150D01*
X292100Y133350D01*
X375600Y133350D01*
X377450Y131500D01*
G54D11*
X437450Y81500D02*
X437450Y69150D01*
X425450Y57150D01*
X400050Y57150D01*
X393700Y50800D01*
X393700Y38100D01*
X368300Y12700D01*
X355600Y12700D01*
X349250Y6350D01*
X330200Y6350D01*
X323850Y12700D01*
X317500Y12700D01*
X304800Y25400D01*
X152400Y25400D01*
M02*
